<svg width="71" height="45" viewBox="0 0 71 45" fill="none" xmlns="http://www.w3.org/2000/svg">
<g clip-path="url(#clip0_19_304)">
<path d="M56.8704 5.92759C56.4409 5.92759 55.3814 5.92759 54.465 5.92759H46.218H45.3303L44.9007 8.1039H49.7115C49.7115 8.1039 49.2247 10.6525 49.2247 10.6811L49.0815 11.6834C48.7093 14.146 48.022 17.6968 47.6498 19.73C46.5616 25.6862 46.2752 27.0607 46.0175 28.1489C44.5285 34.6491 42.3808 43.2112 34.9069 43.2112C32.5874 43.2112 31.3847 41.579 31.3847 39.9181C31.3847 39.2595 31.7856 38.2286 32.5015 37.9136C32.072 37.3409 31.2988 36.94 30.497 36.94C29.1225 36.94 27.748 38.0282 27.748 39.9754C27.748 42.5526 30.6116 44.4139 34.6205 44.4139C43.7267 44.4139 48.3084 38.3145 49.8547 28.063L51.2579 19.9018C51.7447 17.0096 52.5178 12.8574 52.976 10.6525C53.2623 9.27796 53.7492 8.30435 54.7228 7.93209C55.4387 7.76027 56.1832 7.6171 56.985 7.64573C60.7363 7.73164 67.6374 7.703 67.6374 13.201C67.6374 16.1505 66.5207 17.21 65.318 16.8378C64.7452 16.666 64.2298 15.406 65.0889 13.9169C65.2893 13.5733 65.7761 13.1151 66.0338 12.8001C65.6043 12.3992 65.0889 12.1988 64.6307 12.1988C63.6857 12.1988 62.5403 13.4874 62.4544 14.5756C62.3398 16.351 63.743 18.3841 65.9193 18.4986C69.8424 18.6991 70.6442 15.0337 70.4437 12.4279C70.1001 7.6171 63.8575 5.72714 56.8991 5.95623L56.8704 5.92759Z" fill="#5A86AD"/>
<path d="M40.3763 5.89893C39.9754 6.61482 39.5745 7.33071 39.1736 8.07524H40.3476C40.4622 7.30208 40.6054 6.55755 40.6913 5.89893H40.4049H40.3763Z" fill="#5A86AD"/>
<path d="M41.0062 0.400891C41.9512 0.515434 42.9821 0.54407 43.927 0.54407C45.2443 0.54407 46.6188 0.429527 48.0792 0.34362C48.251 0.34362 48.2797 0.400891 48.251 0.601341L48.1078 1.48905C48.0506 1.6895 47.8501 1.91858 47.621 1.91858C45.9888 1.91858 45.4734 3.17855 45.1297 4.98259L44.7861 6.758C44.3279 9.02022 43.7552 12.0842 43.4402 13.9169C43.3257 14.4896 43.2684 15.1482 43.1252 15.8641C42.7243 18.0404 42.2375 20.9899 42.0084 22.6794C41.9512 23.1376 41.8653 23.5385 41.8653 23.9967C41.8653 25.1135 42.2375 25.858 43.5261 25.858C43.7266 25.858 43.8125 25.9725 43.7839 26.173C43.7552 26.4593 43.6407 26.7457 43.612 27.032C43.5834 27.2898 43.4116 27.3757 43.1825 27.4329C41.8653 27.3184 40.4621 27.2611 39.1735 27.2611C37.8849 27.2611 36.4245 27.3184 35.0786 27.4329C34.9641 27.4329 34.8209 27.3757 34.8782 27.1466C34.9068 26.8602 35.0214 26.5452 35.05 26.2589C35.0786 25.9725 35.2218 25.858 35.5082 25.858C37.0831 25.858 37.6558 24.598 38.0281 22.794L39.8608 13.0006C40.1471 11.4829 40.8917 7.24481 41.2067 4.98259L41.4644 3.29309C37.3981 10.5952 32.3296 19.5581 28.2633 26.8602H27.977L22.5076 3.20718L22.2212 4.69624L21.8776 6.32847C21.3908 8.70523 20.7894 11.7692 20.3313 14.3465C19.6154 18.3554 19.1286 21.219 18.9568 22.5935C18.8995 22.9371 18.8422 23.3953 18.8422 23.7676C18.8422 24.9703 19.329 25.8007 21.2476 25.8007C21.4481 25.8007 21.534 25.9153 21.5053 26.1157C21.4767 26.4021 21.3621 26.6884 21.3335 26.9748C21.3049 27.2325 21.1331 27.3184 20.904 27.3757C19.644 27.2611 18.2695 27.2039 16.9523 27.2039C15.635 27.2039 14.2319 27.2611 12.9433 27.3757C12.8287 27.3757 12.6855 27.3184 12.7428 27.0893C12.7715 26.803 12.886 26.488 12.9146 26.2016C12.9433 25.9153 13.0864 25.8007 13.3728 25.8007C15.32 25.8007 16.3223 24.4548 16.7232 22.7367C17.1527 20.7036 17.9545 16.3796 18.384 14.0315C18.8136 11.6833 19.5008 7.44526 19.8731 5.09714C20.1308 3.379 19.0713 1.54632 14.2319 1.54632C9.02018 1.54632 3.57941 5.81303 3.57941 11.3111C3.57941 14.2605 5.52663 16.6373 8.04657 16.6373C10.4233 16.6373 11.5688 14.9764 11.5688 13.4874C11.5688 13.0865 11.4542 12.6856 11.2251 12.3706C11.6547 11.9697 12.1701 11.7692 12.6283 11.7692C13.5732 11.7692 14.4896 12.7142 14.3178 14.1746C13.8023 16.4369 10.8529 17.8114 7.90339 17.8114C3.98031 17.8114 0.0285861 15.0623 0.0285861 10.6811C-4.95724e-05 3.98035 7.41658 -7.62939e-06 14.3178 -7.62939e-06C14.8905 -7.62939e-06 15.6923 0.0572637 16.6945 0.171806C18.1836 0.314985 20.0449 0.486798 22.1353 0.486798C23.2235 0.486798 24.3689 0.429527 25.5143 0.314985C25.8007 0.286349 26.087 0.429527 26.1729 0.629977L30.1533 18.5845L40.3476 0.744519C40.4908 0.458163 40.8058 0.400891 41.0062 0.400891Z" fill="#5A86AD"/>
</g>
<defs>
<clipPath id="clip0_19_304">
<rect width="70.4437" height="44.3566" fill="white"/>
</clipPath>
</defs>
</svg>
